<svg xmlns="http://www.w3.org/2000/svg" viewBox="0 0 45 10" fill="white"><path d="m23.775019 8.983579-.000216-.000345h2.350918l1.44399-2.90337 1.443988 2.90337h2.856266L27.569495.68l-4.082476 7.88311-1.567494-2.288917c.967765-.46671 1.570946-1.275008 1.570946-2.436089v-.022867c0-.819494-.250355-1.41151-.72852-1.889698-.557878-.557779-1.457149-.910658-2.86867-.910658H16v7.968698h2.663834V6.706753h.569096l1.502667 2.276826h3.03942ZM40.340995.68l-4.30004 8.303234h2.856375l1.44388-2.90337 1.44399 2.90337h2.856373L40.340995.68Zm-6.315281 8.623237L38.325645 1h-2.856266L34.02539 3.903363 32.581401 1h-2.856266l4.300579 8.303237ZM19.95127 4.805718c.637374 0 1.024502-.28458 1.024502-.77405v-.022867c0-.51224-.398453-.76267-1.013068-.76267h-1.161167v1.559587h1.149733Zm-9.606317-1.55175H8V1h7.353774v2.253968h-2.344878V8.9687h-2.663942V3.253968ZM1.605005 6.092084.181912 7.788273c1.013205.888063 2.470343 1.343307 4.086765 1.343307 2.140236 0 3.517694-1.024588 3.517694-2.698092v-.022684c0-1.605118-1.366078-2.197135-3.403767-2.572689-.842458-.159554-1.058738-.29596-1.058738-.512337v-.02277c0-.19351.182227-.33011.580551-.33011.73991 0 1.639365.23905 2.39057.78544L7.59286 1.959797C6.670723 1.231177 5.532402.866823 3.995574.866823 1.79833.866823.61448 2.039477.61448 3.553438v.022867c0 1.684712 1.571065 2.197135 3.358237 2.561212.853827.170848 1.104171.29597 1.104171.523717v.022868c0 .216183-.204803.341306-.68299.341306-.933432 0-1.923773-.273017-2.788894-.933324Z" fill="white"/></svg>
